<?xml version="1.0" encoding="UTF-8" standalone="no"?>
<!DOCTYPE svg PUBLIC "-//W3C//DTD SVG 1.1//EN" "http://www.w3.org/Graphics/SVG/1.1/DTD/svg11.dtd">
<svg width="100%" height="100%" viewBox="0 0 1938 449" version="1.1" xmlns="http://www.w3.org/2000/svg" xmlns:xlink="http://www.w3.org/1999/xlink" xml:space="preserve" xmlns:serif="http://www.serif.com/" style="fill-rule:evenodd;clip-rule:evenodd;stroke-linejoin:round;stroke-miterlimit:2;">
    <g id="Mask_Group_251_1_" transform="matrix(1,0,0,1,-642.795,-244.391)">
        <g transform="matrix(1,0,0,1,642.795,244.391)">
            <g id="Group_68527">
                <path id="Path_73973" d="M90.427,44.282C122.711,20.226 160.91,5.349 200.96,1.234C217.08,-0.441 233.333,-0.412 249.447,1.32C254.893,1.902 260.253,2.729 265.267,5.155C280.114,12.339 278.951,31.874 270.556,39.946C262.126,48.052 253.975,56.446 245.704,64.72C213.364,97.058 181.016,129.388 148.659,161.709C140.088,170.245 136.685,180.179 140.159,191.834C146.306,212.45 172.133,218.789 187.422,203.569C214.872,176.242 242.299,148.892 269.703,121.519C282.124,109.126 294.533,96.721 306.931,84.305C314.562,76.727 324.89,72.47 335.644,72.47C350.858,72.47 364.855,80.99 371.842,94.505C380.06,110.447 376.853,129.453 363.642,142.672C335.247,171.091 306.837,199.496 278.412,227.885C267.749,238.53 259.926,250.885 256.037,265.485C249.359,290.565 252.737,314.201 267.518,335.699C276.368,348.568 289.37,356.116 303.743,361.461C316.301,366.131 329.368,368.495 342.632,370.045C351.194,371.045 357.163,375.953 360.391,383.745C363.715,391.769 362.504,399.403 356.514,405.908C348.223,414.908 337.997,421.353 327.385,427.18C306.228,438.798 283.394,444.9 259.485,447.106C244.704,448.627 229.837,449.161 214.985,448.706C188.289,447.771 162.002,441.848 137.485,431.243C74.855,403.91 32.592,357.851 10.696,293.067C0.769,263.546 -1.853,232.986 1.207,201.958C4.549,167.075 16.16,133.487 35.073,103.987C49.761,80.902 68.517,60.672 90.427,44.282ZM415.002,290.041C394.615,310.241 370.227,321.041 341.842,323.114C333.241,323.789 324.589,323.337 316.106,321.769C307.741,320.191 301.606,315.639 298.587,307.669C295.416,299.311 296.564,291.321 302.777,284.66C308.918,278.076 315.41,271.818 321.777,265.447C350.435,236.774 379.102,208.107 407.777,179.447C417.065,170.167 429.856,169.661 439.525,178.226C444.073,182.255 445.925,187.698 446.669,193.507C451.429,230.621 441.079,262.814 415.002,290.041Z" style="fill:rgb(29,161,242);fill-rule:nonzero;"/>
            </g>
        </g>
        <g transform="matrix(1,0,0,1,642.795,244.391)">
            <g id="Group_68528">
                <path id="Path_73975" d="M1472.02,338.395C1468.08,338.393 1464.14,338.103 1460.23,337.527C1452.02,336.368 1443.97,334.18 1436.3,331.014C1429.2,328.057 1422.58,324.065 1416.65,319.168C1410.77,314.253 1405.67,308.474 1401.53,302.029C1397.09,295.06 1393.6,287.529 1391.16,279.636C1388.65,271.876 1387.18,263.816 1386.81,255.67C1386.5,248.086 1387.32,240.498 1389.25,233.158C1391.24,225.769 1394.27,218.702 1398.26,212.173C1402.6,205.123 1407.77,198.615 1413.65,192.787C1417.76,189.15 1422.15,185.837 1426.77,182.878C1431.13,180.1 1435.72,177.713 1440.49,175.746C1445.11,173.854 1449.89,172.411 1454.78,171.434C1459.66,170.47 1464.63,169.985 1469.61,169.987C1478.98,170.062 1488.27,171.614 1497.15,174.587C1504.45,176.927 1511.43,180.182 1517.91,184.275C1523.97,188.133 1529.46,192.823 1534.21,198.206C1538.96,203.626 1542.94,209.668 1546.05,216.165C1549.34,223.108 1551.81,230.416 1553.4,237.937C1554.75,244.145 1555.35,250.491 1555.21,256.842C1555.06,262.964 1554.21,269.048 1552.68,274.977C1551.17,280.806 1549.03,286.453 1546.31,291.82C1543.59,297.154 1540.33,302.191 1536.57,306.849C1532.73,311.612 1528.39,315.956 1523.64,319.809C1518.87,323.672 1513.7,327.008 1508.22,329.761C1502.68,332.538 1496.85,334.679 1490.84,336.144C1484.68,337.637 1478.36,338.393 1472.02,338.395ZM771.329,229.355C771.329,217.527 771.276,206.199 771.349,194.871C771.43,182.359 780.261,173.62 792.855,173.513C798.685,173.463 804.518,173.405 810.346,173.54C820.918,173.785 829.668,181.531 830.335,192.111C831.519,210.902 830.557,229.739 830.817,248.554C830.865,252.046 830.857,255.562 831.25,259.023C832.686,271.657 843.211,280.35 856.25,279.839C868.514,279.358 879.117,269.391 879.339,257.239C879.69,238.088 879.475,218.927 879.51,199.77C879.37,195.606 879.913,191.447 881.116,187.458C883.894,179.352 891.451,173.788 900.016,173.542C906.51,173.399 913.016,173.36 919.505,173.564C929.591,173.882 938.993,182.104 939.079,192.098C939.298,217.555 941.086,243.098 938.087,268.464C934.073,302.417 901.728,333.118 867.767,337.564C829.467,342.578 798.253,324.029 780.831,292.728C774.969,282.013 771.756,270.049 771.46,257.839C771.126,248.521 771.351,239.184 771.329,229.355ZM1716.6,228.96C1701.33,229.052 1686.51,229.073 1671.68,229.123C1660.56,229.161 1653.3,236.389 1653.27,247.613C1653.22,269.602 1653.27,291.591 1653.25,313.581C1653.23,329.266 1644.91,337.499 1629.12,337.529C1623.96,337.539 1618.78,337.654 1613.63,337.363C1602.84,336.956 1594.18,327.992 1594.13,317.194C1593.98,291.376 1593.66,265.544 1594.3,239.739C1595.09,207.356 1624.03,175.605 1657.07,170.799C1677.4,167.841 1697.98,169.231 1718.43,169.899C1728.94,170.24 1736.55,179.532 1737.02,190.616C1737.25,196.27 1737.24,201.949 1737.02,207.604C1736.56,219.083 1729.63,226.363 1716.6,228.96ZM619.205,201.355C619.205,206.186 619.469,210.538 619.129,214.844C618.805,218.95 620.467,219.834 624.268,219.813C649.426,219.67 674.585,219.76 699.743,219.729C706.765,219.72 713.254,221.174 718.92,225.629C729.433,233.894 731.235,248.841 727.282,261.854C723.838,273.193 713.737,279.826 700.701,279.875C675.376,279.975 650.05,280.006 624.726,279.81C620.397,279.776 618.926,280.826 619.099,285.335C619.456,294.485 618.822,303.678 619.299,312.817C619.922,324.739 612.174,336.1 598.64,336.888C592.976,337.218 587.287,337.588 581.685,336.916C567.213,335.193 560.457,327.138 560.423,311.796C560.356,280.64 560.358,249.484 560.429,218.328C560.457,207.343 560.371,196.364 560.858,185.369C562.584,146.381 595.417,114.389 634.518,114.169C658.676,114.031 682.836,114.114 706.995,114.157C719.37,114.179 727.133,120.768 728.609,133.066C729.512,140.011 729.449,147.047 728.423,153.974C726.657,165.14 718.993,172.138 707.569,172.263C684.579,172.513 661.585,172.382 638.593,172.407C626.064,172.421 619.253,179.252 619.204,191.865C619.198,194.862 619.205,197.861 619.205,201.355ZM1288.2,114.147C1301.37,114.147 1314.03,114.089 1326.68,114.164C1338.49,114.234 1346.48,121.371 1347.84,133.064C1348.54,139.361 1348.58,145.714 1347.97,152.02C1346.83,164.469 1338.77,172.183 1326.28,172.304C1303.29,172.528 1280.3,172.384 1257.32,172.404C1245.43,172.414 1238.44,179.421 1238.42,191.34C1238.4,199.169 1238.63,207.007 1238.33,214.824C1238.17,218.907 1239.67,219.835 1243.48,219.814C1268.8,219.672 1294.12,219.657 1319.44,219.768C1334.24,219.82 1344.98,227.668 1347.38,241.168C1350.4,258.142 1346.38,271.95 1330.18,278.282C1325.75,280.014 1321.02,279.872 1316.36,279.882C1292.21,279.925 1268.06,280.012 1243.9,279.802C1239.5,279.764 1238.15,280.968 1238.32,285.397C1238.65,294.379 1238.43,303.383 1238.41,312.379C1238.38,327.467 1232.04,335.024 1217.3,336.887C1211.71,337.595 1206.02,337.226 1200.36,336.855C1187.5,336.013 1179.64,326.279 1179.63,313.255C1179.6,290.435 1179.52,267.614 1179.51,244.794C1179.51,227.471 1179.55,210.147 1179.64,192.824C1179.85,160.407 1194.16,136.366 1222.86,121.196C1232.43,116.137 1242.87,114.066 1253.72,114.131C1265.05,114.199 1276.38,114.147 1288.2,114.147ZM1039.79,135.155C1040,137.404 1040.21,139.232 1040.21,141.06C1040.23,197.224 1040.23,253.388 1040.21,309.553C1040.2,322.217 1032.67,332.405 1021.06,335.81C1007.52,339.783 993.409,335.492 986.562,325.344C983.58,321.082 981.975,316.007 981.962,310.806C981.971,253.806 981.987,196.808 982.009,139.813C982.03,126.965 991.134,116.574 1003.79,114.247C1021.57,110.975 1034.86,118.562 1039.79,135.155ZM1879.31,318.301C1874.76,306.975 1870.25,296.044 1866.01,285.007C1864.65,281.454 1863.08,279.915 1859.09,281.407C1854.24,283.238 1849.1,284.187 1843.91,284.207C1839.5,284.207 1837.82,285.684 1838.06,290.356C1838.47,298.335 1838.2,306.35 1838.16,314.35C1838.1,327.05 1830.6,335.387 1818.05,336.632C1811.42,337.288 1804.73,337.259 1798.1,336.545C1787.91,335.541 1780.05,326.883 1780.03,316.645C1779.97,255.812 1779.97,194.979 1780.03,134.145C1780.04,122.859 1788.68,114.376 1800.01,114.194C1805.51,114.106 1811.01,114.126 1816.51,114.194C1829.36,114.344 1838.11,123.067 1838.14,135.941C1838.21,163.941 1838.16,191.941 1838.17,219.941C1838.17,226.349 1839.13,227.073 1845.01,224.519C1854.38,220.445 1859.57,213.282 1860.46,203.019C1860.89,198.047 1860.1,193.031 1861.28,188.08C1863.65,178.142 1871.55,171.626 1881.71,171.509C1887.54,171.442 1893.38,171.441 1899.21,171.504C1910.53,171.396 1919.97,180.527 1920.24,191.842C1920.95,207.548 1919.2,222.786 1911.88,236.982C1910.65,239.354 1911.27,241.414 1912.18,243.652C1919.69,262.172 1927.17,280.705 1934.61,299.252C1940.4,313.741 1935.85,324.362 1921.46,330.233C1917.6,331.806 1913.77,333.46 1909.86,334.876C1896.85,339.585 1886.42,335.036 1880.94,322.355C1880.42,321.133 1879.94,319.888 1879.31,318.301ZM1075.44,145.379C1075.19,136.81 1075.52,128.931 1080.59,121.979C1087.83,112.038 1102.15,107.904 1115.33,112.189C1126.83,115.929 1134.03,125.827 1134.03,138.299C1134.07,194.417 1134.07,250.535 1134.03,306.653C1134.02,322.613 1122.56,333.941 1106.57,334.104C1086.05,334.313 1075.45,323.804 1075.45,303.234C1075.44,250.783 1075.44,198.329 1075.44,145.379ZM1471.27,228.08C1468.43,228.074 1465.59,228.498 1462.87,229.336C1460.26,230.138 1457.79,231.342 1455.55,232.904C1451.05,236.014 1447.74,240.565 1446.16,245.804C1444.53,250.738 1444.29,256.028 1445.48,261.086C1446.85,266.086 1449.68,270.567 1453.6,273.958C1455.95,276.135 1458.67,277.877 1461.64,279.103C1464.41,280.227 1467.38,280.804 1470.37,280.803C1474.04,280.764 1477.67,279.99 1481.05,278.528C1485.95,276.617 1490.15,273.255 1493.09,268.895C1495.95,264.262 1497.4,258.897 1497.28,253.454C1497.05,250.209 1496.3,247.021 1495.06,244.016C1493.89,241.198 1492.25,238.598 1490.21,236.328C1488.23,234.123 1485.87,232.289 1483.25,230.911C1480.59,229.515 1477.68,228.625 1474.69,228.287C1473.56,228.154 1472.42,228.084 1471.27,228.08L1471.27,228.08Z" style="fill:rgb(31,162,242);fill-rule:nonzero;"/>
            </g>
        </g>
    </g>
</svg>
