<svg width="697" height="305" viewBox="0 0 697 305" fill="none" xmlns="http://www.w3.org/2000/svg">
<path d="M26.806 234.54L0.975952 167.9H15.816L29.466 208.15L27.436 207.31L39.4059 177.56L45.216 194.92L26.806 234.54ZM59.846 234.4L33.176 167.9H45.706L61.456 206.82L59.216 206.47L70.976 167.83H84.556L59.846 234.4ZM104.576 232.65C99.9559 232.65 95.966 231.81 92.746 230.06C89.526 228.31 87.076 225.93 85.396 222.85C83.716 219.77 82.876 216.2 82.876 212.21C82.876 208.36 83.856 204.93 85.816 201.85C87.776 198.77 90.436 196.32 93.726 194.5C97.016 192.68 100.726 191.77 104.786 191.77C110.246 191.77 114.726 193.38 118.226 196.53C121.726 199.68 124.036 204.3 125.086 210.25L95.476 219.63L92.746 212.98L114.166 205.77L111.646 206.89C111.156 205.35 110.316 204.02 109.126 202.9C107.936 201.78 106.186 201.22 103.806 201.22C101.986 201.22 100.446 201.64 99.046 202.48C97.716 203.32 96.666 204.51 95.896 206.05C95.196 207.59 94.846 209.41 94.846 211.51C94.846 213.89 95.266 215.85 96.1759 217.46C97.016 219.07 98.206 220.26 99.746 221.1C101.286 221.94 102.966 222.29 104.786 222.29C106.116 222.29 107.446 222.08 108.636 221.59C109.896 221.1 111.156 220.54 112.346 219.77L117.736 228.8C115.706 229.99 113.536 230.9 111.156 231.6C108.846 232.3 106.606 232.65 104.576 232.65ZM146.366 232.37C143.216 232.37 140.276 231.81 137.616 230.69C134.886 229.57 132.646 228.03 130.756 226.07L135.796 219.35C137.686 221.03 139.366 222.22 140.976 222.99C142.586 223.69 143.986 224.11 145.316 224.11C146.296 224.11 147.206 224.04 147.976 223.83C148.746 223.62 149.376 223.34 149.866 222.85C150.356 222.43 150.566 221.87 150.566 221.17C150.566 220.19 150.146 219.42 149.376 218.79C148.606 218.23 147.626 217.74 146.366 217.32C145.176 216.97 143.846 216.55 142.446 216.13C138.946 215.01 136.426 213.4 134.886 211.3C133.346 209.2 132.576 206.89 132.576 204.37C132.576 202.48 133.066 200.52 134.116 198.56C135.166 196.6 136.776 194.99 139.016 193.66C141.256 192.33 144.126 191.7 147.696 191.7C150.916 191.7 153.576 192.05 155.816 192.68C158.056 193.31 160.086 194.36 162.116 195.83L157.496 202.97C156.376 202.13 155.186 201.36 153.786 200.73C152.456 200.1 151.196 199.82 150.006 199.75C148.956 199.68 148.046 199.82 147.346 200.1C146.646 200.38 146.086 200.8 145.666 201.22C145.246 201.71 145.036 202.2 145.036 202.69C144.966 203.81 145.386 204.65 146.296 205.28C147.206 205.91 148.326 206.4 149.726 206.75C151.126 207.1 152.456 207.52 153.856 207.94C155.746 208.5 157.286 209.34 158.616 210.32C159.946 211.3 160.996 212.49 161.696 213.82C162.396 215.22 162.816 216.83 162.816 218.72C162.816 221.03 162.186 223.27 160.996 225.3C159.806 227.4 157.986 229.01 155.606 230.34C153.156 231.74 150.076 232.37 146.366 232.37ZM176.536 193.31V176.72H188.716V193.31H197.956V202.83H188.716V231.6H176.536V202.83H170.586V193.31H176.536ZM207.266 193.52H218.326L219.306 200.24L219.166 199.75C220.706 197.16 222.596 195.2 224.836 193.8C227.076 192.4 229.806 191.7 233.026 191.7C235.126 191.7 236.946 191.98 238.556 192.54C240.166 193.1 241.496 194.01 242.616 195.13C243.736 196.25 244.506 197.72 244.856 199.54L244.436 199.61C246.046 197.23 248.006 195.34 250.316 193.87C252.626 192.4 255.006 191.7 257.526 191.7C261.306 191.7 264.316 192.75 266.556 194.85C268.796 196.95 269.916 199.75 269.986 203.11V231.67H257.876V208.15C257.806 206.47 257.526 205.07 257.106 204.02C256.616 202.97 255.566 202.34 253.886 202.27C251.926 202.27 250.246 202.97 248.916 204.3C247.516 205.7 246.536 207.38 245.836 209.55C245.136 211.65 244.856 213.89 244.856 216.13V231.74H232.676V208.22C232.606 206.54 232.326 205.14 231.766 204.09C231.206 203.04 230.086 202.41 228.406 202.34C226.516 202.34 224.906 203.04 223.576 204.37C222.246 205.77 221.266 207.45 220.636 209.55C219.936 211.65 219.656 213.82 219.656 215.99V231.74H207.476V193.52H207.266ZM279.576 212.07C279.576 208.15 280.486 204.72 282.306 201.64C284.126 198.56 286.716 196.11 290.006 194.36C293.296 192.61 297.146 191.7 301.416 191.7C305.756 191.7 309.536 192.61 312.756 194.36C315.976 196.11 318.426 198.56 320.106 201.64C321.856 204.72 322.696 208.22 322.696 212.07C322.696 215.99 321.856 219.49 320.106 222.57C318.426 225.65 315.976 228.17 312.756 229.92C309.536 231.74 305.756 232.65 301.276 232.65C297.076 232.65 293.366 231.81 290.076 230.2C286.786 228.59 284.196 226.21 282.376 223.13C280.486 220.05 279.576 216.34 279.576 212.07ZM291.826 212.14C291.826 214.1 292.246 215.92 293.016 217.46C293.856 219.07 294.906 220.33 296.306 221.24C297.706 222.15 299.246 222.64 300.996 222.64C302.886 222.64 304.566 222.15 305.966 221.24C307.366 220.33 308.416 219.07 309.186 217.46C309.956 215.85 310.306 214.1 310.306 212.14C310.306 210.11 309.956 208.29 309.186 206.75C308.416 205.21 307.366 203.95 305.966 202.97C304.566 202.06 302.886 201.57 300.996 201.57C299.246 201.57 297.706 202.06 296.306 202.97C294.906 203.88 293.786 205.14 293.016 206.75C292.246 208.29 291.826 210.11 291.826 212.14ZM332.286 193.52H343.346L344.326 200.31L344.186 199.68C345.516 197.3 347.406 195.34 349.856 193.87C352.306 192.4 355.316 191.63 358.816 191.63C362.386 191.63 365.396 192.68 367.846 194.78C370.296 196.88 371.486 199.68 371.556 203.04V231.53H359.376V207.59C359.306 205.91 358.886 204.58 358.046 203.53C357.206 202.48 355.806 201.99 353.846 201.99C351.956 201.99 350.346 202.62 348.946 203.81C347.546 205 346.496 206.68 345.726 208.78C344.956 210.88 344.606 213.26 344.606 215.99V231.53H332.426V193.52H332.286ZM387.586 193.31V176.72H399.836V193.31H409.076V202.83H399.836V231.6H387.656V202.83H381.706V193.31H387.586ZM490.066 167.41H502.736V231.53H490.066V205.49H461.366V231.53H448.696V167.41H461.366V193.31H490.066V167.41ZM514.216 212.07C514.216 208.15 515.126 204.72 516.946 201.64C518.766 198.56 521.356 196.11 524.646 194.36C527.936 192.61 531.786 191.7 536.056 191.7C540.396 191.7 544.176 192.61 547.396 194.36C550.616 196.11 553.066 198.56 554.746 201.64C556.426 204.72 557.336 208.22 557.336 212.07C557.336 215.99 556.496 219.49 554.746 222.57C552.996 225.65 550.546 228.17 547.396 229.92C544.246 231.67 540.396 232.65 535.916 232.65C531.716 232.65 528.006 231.81 524.716 230.2C521.426 228.59 518.836 226.21 517.016 223.13C515.196 220.05 514.216 216.34 514.216 212.07ZM526.536 212.14C526.536 214.1 526.956 215.92 527.726 217.46C528.566 219.07 529.686 220.33 531.086 221.24C532.486 222.15 534.026 222.64 535.776 222.64C537.666 222.64 539.346 222.15 540.746 221.24C542.146 220.33 543.196 219.07 543.966 217.46C544.736 215.85 545.086 214.1 545.086 212.14C545.086 210.11 544.736 208.29 543.966 206.75C543.196 205.21 542.146 203.95 540.746 202.97C539.346 202.06 537.666 201.57 535.776 201.57C534.026 201.57 532.486 202.06 531.086 202.97C529.686 203.88 528.566 205.14 527.726 206.75C526.956 208.29 526.536 210.11 526.536 212.14ZM579.246 233.42C575.816 233.42 572.946 232.37 570.636 230.2C568.326 228.1 567.066 225.37 566.996 221.94V193.52H579.176V217.46C579.316 219.14 579.736 220.47 580.506 221.52C581.276 222.57 582.536 223.06 584.356 223.06C586.176 223.06 587.716 222.43 589.046 221.24C590.376 220.05 591.356 218.37 592.126 216.2C592.826 214.1 593.176 211.72 593.176 208.99V193.52H605.356V231.6H594.296L593.316 224.6L593.456 225.37C592.616 226.91 591.496 228.31 590.166 229.57C588.836 230.76 587.226 231.74 585.406 232.44C583.586 233.07 581.556 233.42 579.246 233.42ZM630.276 232.37C627.126 232.37 624.256 231.81 621.526 230.69C618.796 229.57 616.556 228.03 614.666 226.07L619.706 219.35C621.596 221.03 623.276 222.22 624.886 222.99C626.496 223.69 627.896 224.11 629.226 224.11C630.206 224.11 631.116 224.04 631.886 223.83C632.656 223.62 633.286 223.34 633.776 222.85C634.266 222.43 634.476 221.87 634.476 221.17C634.476 220.19 634.056 219.42 633.286 218.79C632.516 218.23 631.466 217.74 630.276 217.32C629.086 216.97 627.756 216.55 626.356 216.13C622.856 215.01 620.336 213.4 618.796 211.3C617.256 209.2 616.486 206.89 616.486 204.37C616.486 202.48 616.976 200.52 618.026 198.56C619.006 196.6 620.686 194.99 622.926 193.66C625.166 192.33 628.036 191.7 631.606 191.7C634.826 191.7 637.486 192.05 639.726 192.68C641.966 193.31 643.996 194.36 646.026 195.83L641.406 202.97C640.286 202.13 639.096 201.36 637.696 200.73C636.296 200.1 635.036 199.82 633.916 199.75C632.866 199.68 631.956 199.82 631.256 200.1C630.556 200.38 629.926 200.8 629.576 201.22C629.226 201.64 628.946 202.2 628.946 202.69C628.876 203.81 629.296 204.65 630.206 205.28C631.116 205.91 632.236 206.4 633.636 206.75C635.036 207.1 636.366 207.52 637.766 207.94C639.656 208.5 641.196 209.34 642.526 210.32C643.856 211.3 644.906 212.49 645.606 213.82C646.306 215.22 646.656 216.83 646.656 218.72C646.656 221.03 646.026 223.27 644.836 225.3C643.646 227.4 641.826 229.01 639.446 230.34C637.066 231.74 633.986 232.37 630.276 232.37ZM675.566 232.65C670.946 232.65 666.956 231.81 663.736 230.06C660.516 228.31 658.066 225.93 656.386 222.85C654.706 219.77 653.866 216.2 653.866 212.21C653.866 208.36 654.846 204.93 656.806 201.85C658.766 198.77 661.426 196.32 664.716 194.5C668.006 192.68 671.716 191.77 675.776 191.77C681.236 191.77 685.716 193.38 689.216 196.53C692.716 199.68 695.026 204.3 696.076 210.25L666.536 219.56L663.806 212.91L685.226 205.7L682.706 206.82C682.216 205.28 681.376 203.95 680.186 202.83C678.996 201.71 677.246 201.15 674.866 201.15C673.046 201.15 671.506 201.57 670.106 202.41C668.776 203.25 667.726 204.44 666.956 205.98C666.256 207.52 665.906 209.34 665.906 211.44C665.906 213.82 666.326 215.78 667.236 217.39C668.076 219 669.266 220.19 670.806 221.03C672.346 221.87 674.026 222.22 675.846 222.22C677.176 222.22 678.506 222.01 679.696 221.52C680.956 221.03 682.216 220.47 683.406 219.7L688.796 228.73C686.766 229.92 684.596 230.83 682.216 231.53C679.906 232.3 677.666 232.65 675.566 232.65Z" fill="#0E8388"/>
<path d="M206.95 251.198H214.65V295.298H207.79V261.348L195.19 279.058H191.62L179.09 261.348V295.228H172.23V251.128H179.93L193.44 270.308L206.95 251.198ZM245.38 296.278C240.55 296.278 236.49 295.298 233.2 293.408C229.91 291.518 227.46 288.858 225.85 285.358C224.24 281.858 223.4 277.868 223.4 273.248C223.4 268.908 224.24 264.988 225.85 261.558C227.46 258.128 229.91 255.398 233.27 253.368C236.56 251.338 240.62 250.358 245.45 250.358C247.48 250.358 249.37 250.498 250.91 250.848C252.52 251.198 254.27 251.758 256.09 252.528V258.688C252.94 257.078 249.37 256.308 245.59 256.308C242.51 256.308 239.85 257.008 237.54 258.478C235.23 259.948 233.48 261.978 232.22 264.498C231.03 267.088 230.4 269.958 230.4 273.248C230.47 276.608 231.03 279.618 232.22 282.138C233.41 284.658 235.09 286.688 237.33 288.158C239.57 289.628 242.3 290.328 245.45 290.328C247.48 290.328 249.44 290.048 251.4 289.488C253.36 288.928 255.39 288.088 257.56 286.968L259.66 292.708C257.42 293.898 255.04 294.738 252.59 295.368C250 295.998 247.62 296.278 245.38 296.278ZM274.29 289.278H292.14V295.298H267.43V251.198H274.29V289.278ZM307.19 289.558H327.98V295.298H300.33V251.198H327.7V256.938H307.19V270.168H324.76V275.908H307.19V289.558ZM366.69 295.298L362.35 283.398H344.29L340.02 295.298H333.02L349.33 250.708H357.38L373.76 295.298H366.69ZM346.46 277.378H360.11L353.32 258.548L346.46 277.378ZM408.97 251.198H415.83V295.298H408.2L387.97 262.468V295.298H381.11V251.198H388.74L408.97 284.028V251.198ZM424.37 304.118L427.87 285.708H434.87L430.46 304.118H424.37ZM473.58 251.198H480.72L464.41 295.858H456.36L440.05 251.198H447.12L460.35 287.878L473.58 251.198ZM517.89 295.298L513.55 283.398H495.49L491.22 295.298H484.22L500.53 250.708H508.58L524.96 295.298H517.89ZM497.66 277.378H511.31L504.52 258.548L497.66 277.378Z" fill="#71008D"/>
<path d="M545.117 128.187C545.117 135.257 539.377 141.067 532.307 141.067H379.637C375.997 141.067 372.777 139.597 370.397 137.147L269.667 33.0574L165.507 137.287C163.197 139.597 159.977 141.067 156.407 141.067C149.337 141.067 143.597 135.327 143.597 128.187C143.597 124.617 145.067 121.397 147.377 119.087L260.777 5.61739C263.087 3.30739 266.307 1.83739 269.877 1.83739C273.517 1.83739 276.737 3.30739 279.117 5.75739L308.517 36.2774H387.687V0.577393H421.777V36.3474H463.077C466.927 36.3474 470.357 38.0274 472.737 40.6874L541.967 119.717C543.927 121.957 545.117 124.967 545.117 128.187ZM234.247 123.707H262.247V95.7074H234.247V123.707ZM276.527 123.707H304.527V95.7074H276.527V123.707ZM234.247 163.817H262.247V135.817H234.247V163.817ZM276.527 163.957H304.527V135.957H276.527V163.957Z" fill="#0E8388"/>
</svg>
