<svg width="196" height="57" viewBox="0 0 196 57" fill="none" xmlns="http://www.w3.org/2000/svg">
<g id="Layer 5">
<g id="Layer 1">
<path id="Vector" d="M6.27299 8.22897L4.90628 16.2269L22.5056 16.2645L0.995989 39.6387L0.0734863 45.3261L30.297 45.2898L31.6929 37.2168L14.1678 37.1054L35.6409 13.8426L36.6109 8.22897H6.27299Z" fill="#FBBB3B"/>
<path id="Vector_2" d="M41.5739 8.22897H51.6302L45.4307 45.3261H35.3063L41.5739 8.22897Z" fill="#FBBB3B"/>
<path id="Vector_3" d="M79.6205 10.0275C76.3649 8.14908 72.552 8.26648 72.1674 8.26648H66.4864L56.5214 8.23138L50.2537 45.3285H60.3781L62.2037 34.174L62.2158 34.1001H67.3273C67.3273 34.1001 75.7844 34.9801 80.8764 28.4442C85.9684 21.9083 85.45 13.4032 79.6205 10.0275ZM72.6834 23.8969C71.4664 25.5042 69.9378 26.2256 68.7172 26.4314C68.6356 26.4459 68.5565 26.4568 68.4738 26.4665C68.1415 26.5028 66.7699 26.5209 65.4847 26.5209H65.3886C64.6365 26.5209 63.9282 26.5209 63.4681 26.5028L65.172 16.1991L69.5812 16.2669C69.5812 16.2669 72.5021 16.4968 73.2713 18.3947C74.0124 20.2283 73.5706 22.7229 72.6847 23.8969H72.6834Z" fill="#FBBB3B"/>
<g id="Layer 72">
<path id="Vector_4" d="M195.71 32.5739H179.111L178.674 36.2594C178.552 37.2882 177.804 37.2712 177.693 36.2364L176.514 30.2064C176.392 29.1111 175.59 29.1825 175.523 30.2936L174.398 47.7226C174.328 48.9003 173.454 48.8773 173.399 47.696L172.16 17.0427C172.107 15.882 171.252 15.8324 171.164 16.9834L170.1 30.7644C170.011 31.9082 169.165 31.8695 169.104 30.7196L168.042 10.7731C167.979 9.57971 167.089 9.60271 167.042 10.7997L165.817 42.0424C165.771 43.2322 164.889 43.2661 164.818 42.0812L163.567 20.9618C163.5 19.8229 162.664 19.789 162.573 20.9219L161.721 33.898C161.628 35.0418 160.781 34.9873 160.725 33.8387L159.401 4.61971C159.343 3.41541 158.443 3.43841 158.401 4.64513L157.196 38.2928C157.153 39.5031 156.255 39.5225 156.195 38.3194L155.301 20.3591C155.241 19.1584 154.346 19.179 154.301 20.3833L153.004 54.9992C152.958 56.2253 152.041 56.2095 152.003 54.9871L150.83 17.1238C150.792 15.9038 149.88 15.8832 149.828 17.1008L148.764 41.9274C148.713 43.1075 147.841 43.1378 147.766 41.9674L146.68 24.9015C146.609 23.8013 145.811 23.7311 145.691 24.8144L144.505 37.2228C144.392 38.2456 143.653 38.2625 143.531 37.2458L142.784 26.7158C142.662 25.681 141.899 25.7233 141.802 26.7715L141.287 34.6557C141.183 35.7716 140.361 35.7184 140.294 34.5927L138.712 22.1383C138.642 20.9594 137.766 20.9812 137.713 22.1649L136.225 47.0981C136.171 48.3084 135.261 48.289 135.224 47.0702L133.986 11.5235C133.948 10.3047 133.039 10.2805 132.984 11.4969L131.957 34.5068C131.904 35.7172 131.001 35.7026 130.957 34.4923L129.791 1.64226C129.746 0.417384 128.828 0.431908 128.789 1.65073L127.766 32.5763" stroke="#FBBB3B" strokeMiterlimit="10"/>
<path id="Vector_5" d="M56.6041 31.3635H79.5316L79.9685 35.049C80.0902 36.0778 80.8399 36.0609 80.9494 35.0261L82.2504 29.2382C82.366 28.1428 83.1741 28.2142 83.2411 29.3253L84.2439 37.7977C84.3145 38.9754 85.1883 38.9524 85.2431 37.7711L86.482 15.8324C86.5356 14.6716 87.3899 14.622 87.4787 15.7731L88.5424 29.5541C88.6313 30.6978 89.4771 30.6591 89.5379 29.5093L90.6004 9.56277C90.6637 8.36937 91.5533 8.39236 91.6008 9.5894L92.8251 40.8321C92.8714 42.0219 93.7537 42.0557 93.8243 40.8708L95.0754 19.7515C95.1423 18.6125 95.9784 18.5786 96.0697 19.7115L96.9277 30.388C97.0202 31.5318 97.8672 31.4773 97.9232 30.3287L99.2413 3.40936C99.2997 2.20507 100.199 2.22806 100.242 3.43478L101.447 37.0824C101.489 38.2928 102.387 38.3121 102.447 37.1091L103.341 19.1487C103.401 17.9481 104.297 17.9686 104.342 19.1729L105.638 47.495C105.684 48.7211 106.602 48.7054 106.64 47.4829L107.813 14.0979C107.85 12.8779 108.762 12.8573 108.814 14.0749L109.878 40.7171C109.929 41.8972 110.802 41.9275 110.876 40.757L111.963 18.8498C112.033 17.7496 112.832 17.6794 112.951 18.7626L114.138 34.318C114.251 35.3407 114.99 35.3577 115.111 34.341L115.858 28.2893C115.986 27.2544 116.743 27.2968 116.841 28.3449L117.599 41.7967C117.702 42.9127 118.525 42.8594 118.592 41.7338L120.174 15.4814C120.243 14.3025 121.12 14.3243 121.173 15.508L122.417 50.7291C122.472 51.9394 123.381 51.9201 123.419 50.7013L124.656 10.3132C124.694 9.09436 125.603 9.07016 125.658 10.2866L126.685 33.2965C126.739 34.5068 127.642 34.4923 127.685 33.2819L128.851 1.64226C128.896 0.417384 129.814 0.431908 129.853 1.65073L130.877 31.1977" stroke="#FBBB3B" strokeMiterlimit="10"/>
</g>
<g id="Group">
<path id="Vector_6" d="M90.3363 23.3462V28.7928H94.2308V30.0588H90.3363V40.8006C90.3363 41.8746 90.4909 42.598 90.8 42.9708C90.941 43.1497 91.122 43.2935 91.3286 43.3908C91.5352 43.4881 91.7617 43.5361 91.9903 43.5312C92.4066 43.5262 92.8119 43.3972 93.1537 43.1608C93.5473 42.8921 93.8515 42.5128 94.0276 42.0715H94.7359C94.3107 43.2528 93.7107 44.1404 92.9359 44.7342C92.1611 45.3281 91.3611 45.6271 90.5359 45.6311C89.9587 45.6258 89.3934 45.4665 88.899 45.17C88.3713 44.8692 87.9565 44.4056 87.7173 43.8495C87.4626 43.2766 87.3352 42.3938 87.3352 41.2012V30.066H84.6991V29.4693C85.366 29.2047 86.048 28.7556 86.7449 28.1222C87.4661 27.4596 88.0929 26.7022 88.6082 25.871C88.8865 25.4127 89.2747 24.5747 89.7729 23.3571L90.3363 23.3462Z" fill="black"/>
<path id="Vector_7" d="M110.446 28.7891V38.8253C110.446 40.7425 110.492 41.9149 110.583 42.3426C110.674 42.7711 110.819 43.0688 111.02 43.2383C111.214 43.4047 111.463 43.4947 111.719 43.4912C112.16 43.4765 112.594 43.3718 112.992 43.1838L113.247 43.8168L108.267 45.8599H107.449V42.3499C106.016 43.8918 104.924 44.8646 104.174 45.268C103.442 45.6611 102.623 45.8662 101.791 45.8647C100.913 45.8836 100.055 45.5992 99.3642 45.0598C98.6853 44.5327 98.1867 43.8098 97.9366 42.9901C97.6697 42.1469 97.5362 40.9531 97.5362 39.4087V32.0135C97.5362 31.2292 97.4515 30.6866 97.2819 30.3856C97.1091 30.0813 96.8454 29.8381 96.5273 29.6896C96.1939 29.5282 95.5906 29.4528 94.7176 29.4633V28.794H100.559V39.8795C100.559 41.4231 100.829 42.4358 101.369 42.9175C101.903 43.3988 102.602 43.6586 103.323 43.6437C103.844 43.6437 104.435 43.4823 105.096 43.1596C105.758 42.8368 106.543 42.2159 107.451 41.2969V31.8997C107.451 30.9589 107.279 30.323 106.933 29.9922C106.587 29.6614 105.869 29.4835 104.779 29.4585V28.7891H110.446Z" fill="black"/>
<path id="Vector_8" d="M119.32 31.8089C121.272 29.4689 123.133 28.2989 124.902 28.2989C125.811 28.2989 126.593 28.5249 127.247 28.9767C127.902 29.4286 128.423 30.173 128.811 31.2098C129.078 31.936 129.212 33.0451 129.212 34.5371V41.6079C129.212 42.6569 129.296 43.3682 129.466 43.7418C129.597 44.0414 129.825 44.2895 130.112 44.4474C130.409 44.6168 130.958 44.7012 131.758 44.7004V45.3515H123.521V44.7004H123.865C124.642 44.7004 125.185 44.583 125.494 44.3481C125.821 44.0841 126.048 43.7176 126.139 43.3085C126.187 43.1269 126.212 42.5601 126.212 41.6079V34.83C126.212 33.3235 126.015 32.2297 125.62 31.5487C125.226 30.8677 124.562 30.5268 123.629 30.526C122.187 30.526 120.75 31.3099 119.32 32.8777V41.6116C119.32 42.7339 119.387 43.4271 119.521 43.6909C119.666 44.0146 119.911 44.2838 120.22 44.4595C120.517 44.6209 121.12 44.7016 122.029 44.7016V45.3527H113.792V44.7016H114.157C115.006 44.7016 115.579 44.4877 115.876 44.0601C116.172 43.6324 116.321 42.8154 116.321 41.6091V35.4642C116.321 33.476 116.276 32.2657 116.185 31.8332C116.093 31.3999 115.955 31.1069 115.766 30.9472C115.551 30.7817 115.283 30.6984 115.011 30.7124C114.593 30.7297 114.181 30.8215 113.794 30.9835L113.522 30.3323L118.541 28.3074H119.322L119.32 31.8089Z" fill="black"/>
<path id="Vector_9" d="M135.885 35.0285C135.872 37.4879 136.472 39.4168 137.685 40.8151C138.897 42.2135 140.321 42.9127 141.959 42.9127C142.981 42.9341 143.981 42.6193 144.804 42.017C145.61 41.4207 146.286 40.3992 146.832 38.9524L147.395 39.3155C147.141 40.9664 146.402 42.4701 145.177 43.8265C143.951 45.1829 142.418 45.8611 140.576 45.8611C138.577 45.8611 136.865 45.0865 135.439 43.5372C134.014 41.988 133.302 39.9054 133.303 37.2894C133.303 34.4572 134.033 32.2479 135.494 30.6615C136.954 29.0752 138.788 28.2828 140.995 28.2844C142.861 28.2844 144.394 28.896 145.595 30.1193C146.796 31.3426 147.396 32.9794 147.395 35.0297L135.885 35.0285ZM135.885 33.9791H143.594C143.534 32.9188 143.407 32.1712 143.214 31.7363C142.929 31.0846 142.457 30.5312 141.857 30.1459C141.3 29.7731 140.646 29.5719 139.975 29.5674C138.969 29.5674 138.069 29.9559 137.274 30.733C136.48 31.51 136.017 32.592 135.885 33.9791Z" fill="black"/>
<path id="Vector_10" d="M160.378 28.3014V33.9428H159.778C159.318 32.1676 158.726 30.9621 158.005 30.3263C157.284 29.6904 156.365 29.3709 155.25 29.3677C154.401 29.3677 153.716 29.5908 153.196 30.037C152.675 30.4832 152.414 30.9774 152.414 31.5197C152.398 32.1484 152.604 32.7628 152.996 33.2565C153.371 33.7503 154.134 34.2748 155.286 34.83L157.942 36.1142C160.403 37.3076 161.633 38.881 161.633 40.8345C161.633 42.341 161.06 43.5554 159.915 44.4777C158.837 45.3752 157.475 45.8652 156.069 45.8611C155.051 45.8611 153.887 45.6803 152.577 45.3188C152.26 45.2133 151.929 45.1525 151.595 45.1385C151.317 45.1385 151.099 45.295 150.94 45.6081H150.34V39.6932H150.94C151.279 41.382 151.929 42.6541 152.888 43.5094C153.847 44.3647 154.92 44.7927 156.107 44.7936C156.943 44.7936 157.625 44.5495 158.151 44.0613C158.403 43.841 158.603 43.5695 158.74 43.2652C158.876 42.9609 158.945 42.631 158.942 42.2978C158.951 41.9064 158.877 41.5175 158.725 41.1563C158.573 40.795 158.347 40.4694 158.061 40.2003C157.472 39.6355 156.299 38.9181 154.543 38.0483C152.786 37.1785 151.634 36.395 151.088 35.6978C150.542 35.0103 150.27 34.1421 150.27 33.0931C150.27 31.7319 150.74 30.5926 151.679 29.6751C152.619 28.7577 153.836 28.2998 155.33 28.3014C155.985 28.3014 156.779 28.4397 157.712 28.7165C158.33 28.8981 158.742 28.9884 158.948 28.9876C159.109 28.999 159.27 28.9564 159.404 28.8666C159.567 28.7065 159.696 28.5161 159.786 28.3062L160.378 28.3014Z" fill="black"/>
</g>
</g>
</g>
</svg>
